<svg xmlns="http://www.w3.org/2000/svg" xmlns:xlink="http://www.w3.org/1999/xlink" width="500" zoomAndPan="magnify" viewBox="0 0 375 374.999991" height="500" preserveAspectRatio="xMidYMid meet" version="1.0"><defs><g/></defs><rect x="-37.5" width="450" fill="#ffffff" y="-37.499999" height="449.999989" fill-opacity="1"/><rect x="-37.5" width="450" fill="#ffffff" y="-37.499999" height="449.999989" fill-opacity="1"/><rect x="-37.5" width="450" fill="#ffffff" y="-37.499999" height="449.999989" fill-opacity="1"/><g fill="#5271ff" fill-opacity="1"><g transform="translate(10.381665, 230.260201)"><g><path d="M 39.421875 1.171875 C 32.648438 1.171875 26.789062 -0.375 21.84375 -3.46875 C 16.90625 -6.5625 13.09375 -11.226562 10.40625 -17.46875 C 7.726562 -23.707031 6.390625 -31.414062 6.390625 -40.59375 C 6.390625 -49.851562 8 -57.597656 11.21875 -63.828125 C 14.4375 -70.066406 18.90625 -74.710938 24.625 -77.765625 C 30.34375 -80.828125 36.976562 -82.359375 44.53125 -82.359375 C 52.3125 -82.359375 58.941406 -80.910156 64.421875 -78.015625 C 69.898438 -75.128906 73.75 -70.835938 75.96875 -65.140625 L 64.25 -58.03125 L 62.859375 -58.09375 C 61.191406 -61.71875 58.847656 -64.363281 55.828125 -66.03125 C 52.816406 -67.695312 49.050781 -68.53125 44.53125 -68.53125 C 37.539062 -68.53125 32.191406 -66.316406 28.484375 -61.890625 C 24.785156 -57.460938 22.9375 -50.363281 22.9375 -40.59375 C 22.9375 -30.78125 24.664062 -23.648438 28.125 -19.203125 C 31.59375 -14.765625 36.710938 -12.546875 43.484375 -12.546875 C 49.335938 -12.546875 53.648438 -13.859375 56.421875 -16.484375 C 59.203125 -19.117188 60.59375 -23.046875 60.59375 -28.265625 L 60.59375 -31.765625 L 41.375 -31.765625 L 41.375 -44.8125 L 76.53125 -44.8125 L 76.53125 0 L 61.203125 0 L 61.203125 -10.890625 L 60.03125 -11.046875 C 58.363281 -7.160156 55.835938 -4.148438 52.453125 -2.015625 C 49.066406 0.109375 44.722656 1.171875 39.421875 1.171875 Z M 39.421875 1.171875 "/></g></g></g><g fill="#5271ff" fill-opacity="1"><g transform="translate(95.072915, 230.260201)"><g><path d="M 60.53125 -27.15625 L 21.15625 -27.15625 C 21.601562 -21.820312 23.117188 -17.941406 25.703125 -15.515625 C 28.296875 -13.097656 31.832031 -11.890625 36.3125 -11.890625 C 39.832031 -11.890625 42.679688 -12.546875 44.859375 -13.859375 C 47.046875 -15.171875 48.804688 -17.160156 50.140625 -19.828125 L 51.3125 -19.828125 L 61.53125 -13.265625 C 59.53125 -8.972656 56.507812 -5.492188 52.46875 -2.828125 C 48.4375 -0.160156 43.050781 1.171875 36.3125 1.171875 C 29.988281 1.171875 24.519531 -0.03125 19.90625 -2.4375 C 15.300781 -4.84375 11.75 -8.425781 9.25 -13.1875 C 6.75 -17.945312 5.5 -23.75 5.5 -30.59375 C 5.5 -37.5625 6.8125 -43.429688 9.4375 -48.203125 C 12.070312 -52.984375 15.628906 -56.546875 20.109375 -58.890625 C 24.585938 -61.242188 29.617188 -62.421875 35.203125 -62.421875 C 43.867188 -62.421875 50.503906 -60.125 55.109375 -55.53125 C 59.722656 -50.9375 62.03125 -44.195312 62.03125 -35.3125 C 62.03125 -32.09375 61.921875 -29.597656 61.703125 -27.828125 Z M 47.3125 -37.09375 C 47.164062 -41.757812 46.082031 -45.15625 44.0625 -47.28125 C 42.050781 -49.414062 39.097656 -50.484375 35.203125 -50.484375 C 27.429688 -50.484375 22.859375 -46.019531 21.484375 -37.09375 Z M 47.3125 -37.09375 "/></g></g></g><g fill="#5271ff" fill-opacity="1"><g transform="translate(161.659679, 230.260201)"><g><path d="M 42.265625 -14.609375 L 46.265625 -3.21875 C 44.597656 -1.851562 42.503906 -0.78125 39.984375 0 C 37.460938 0.78125 34.613281 1.171875 31.4375 1.171875 C 24.800781 1.171875 19.757812 -0.628906 16.3125 -4.234375 C 12.875 -7.847656 11.15625 -13.101562 11.15625 -20 L 11.15625 -49.09375 L 1.828125 -49.09375 L 1.828125 -61.3125 L 11.15625 -61.3125 L 11.15625 -73.25 L 26.546875 -75.75 L 26.546875 -61.3125 L 43.921875 -61.3125 L 43.921875 -49.09375 L 26.546875 -49.09375 L 26.546875 -21.109375 C 26.546875 -18.066406 27.175781 -15.851562 28.4375 -14.46875 C 29.695312 -13.082031 31.53125 -12.390625 33.9375 -12.390625 C 36.675781 -12.390625 39.0625 -13.128906 41.09375 -14.609375 Z M 42.265625 -14.609375 "/></g></g></g><g fill="#5271ff" fill-opacity="1"><g transform="translate(209.253391, 230.260201)"><g><path d="M 39.421875 1.171875 C 32.648438 1.171875 26.789062 -0.375 21.84375 -3.46875 C 16.90625 -6.5625 13.09375 -11.226562 10.40625 -17.46875 C 7.726562 -23.707031 6.390625 -31.414062 6.390625 -40.59375 C 6.390625 -49.851562 8 -57.597656 11.21875 -63.828125 C 14.4375 -70.066406 18.90625 -74.710938 24.625 -77.765625 C 30.34375 -80.828125 36.976562 -82.359375 44.53125 -82.359375 C 52.3125 -82.359375 58.941406 -80.910156 64.421875 -78.015625 C 69.898438 -75.128906 73.75 -70.835938 75.96875 -65.140625 L 64.25 -58.03125 L 62.859375 -58.09375 C 61.191406 -61.71875 58.847656 -64.363281 55.828125 -66.03125 C 52.816406 -67.695312 49.050781 -68.53125 44.53125 -68.53125 C 37.539062 -68.53125 32.191406 -66.316406 28.484375 -61.890625 C 24.785156 -57.460938 22.9375 -50.363281 22.9375 -40.59375 C 22.9375 -30.78125 24.664062 -23.648438 28.125 -19.203125 C 31.59375 -14.765625 36.710938 -12.546875 43.484375 -12.546875 C 49.335938 -12.546875 53.648438 -13.859375 56.421875 -16.484375 C 59.203125 -19.117188 60.59375 -23.046875 60.59375 -28.265625 L 60.59375 -31.765625 L 41.375 -31.765625 L 41.375 -44.8125 L 76.53125 -44.8125 L 76.53125 0 L 61.203125 0 L 61.203125 -10.890625 L 60.03125 -11.046875 C 58.363281 -7.160156 55.835938 -4.148438 52.453125 -2.015625 C 49.066406 0.109375 44.722656 1.171875 39.421875 1.171875 Z M 39.421875 1.171875 "/></g></g></g><g fill="#5271ff" fill-opacity="1"><g transform="translate(293.944642, 230.260201)"><g><path d="M 35.59375 1.171875 C 29.59375 1.171875 24.328125 -0.0546875 19.796875 -2.515625 C 15.265625 -4.984375 11.75 -8.59375 9.25 -13.34375 C 6.75 -18.101562 5.5 -23.851562 5.5 -30.59375 C 5.5 -37.332031 6.75 -43.085938 9.25 -47.859375 C 11.75 -52.640625 15.265625 -56.257812 19.796875 -58.71875 C 24.328125 -61.1875 29.59375 -62.421875 35.59375 -62.421875 C 41.59375 -62.421875 46.859375 -61.1875 51.390625 -58.71875 C 55.929688 -56.257812 59.457031 -52.640625 61.96875 -47.859375 C 64.488281 -43.085938 65.75 -37.332031 65.75 -30.59375 C 65.75 -23.851562 64.488281 -18.101562 61.96875 -13.34375 C 59.457031 -8.59375 55.929688 -4.984375 51.390625 -2.515625 C 46.859375 -0.0546875 41.59375 1.171875 35.59375 1.171875 Z M 35.59375 -11.890625 C 45.113281 -11.890625 49.875 -18.125 49.875 -30.59375 C 49.875 -37.070312 48.648438 -41.820312 46.203125 -44.84375 C 43.765625 -47.863281 40.226562 -49.375 35.59375 -49.375 C 26.082031 -49.375 21.328125 -43.113281 21.328125 -30.59375 C 21.328125 -18.125 26.082031 -11.890625 35.59375 -11.890625 Z M 35.59375 -11.890625 "/></g></g></g></svg>